<svg xmlns="http://www.w3.org/2000/svg" version="1.1" width="1024" height="576">
<rect x="0" y="0" width="1024" height="576" fill="#452e1c" />
<g transform="scale(4.000000) translate(0.5 0.5)">
<polygon fill="#ff9924" fill-opacity="0.501961" points="69.266960,150.480955,5.294661,118.539465,78.145825,74.364291,149.993127,115.396847" />
<polygon fill="#ff961d" fill-opacity="0.501961" points="97.944950,104.377067,152.686549,116.688630,50.992246,138.543663,14.906812,120.868988" />
<polygon fill="#613e22" fill-opacity="0.501961" points="130.347894,113.367832,-3.657669,113.344152,117.427634,68.374790,183.696114,126.935993" />
<polygon fill="#603c1e" fill-opacity="0.501961" points="123.795938,103.677297,228.512207,90.160625,138.430350,81.331400,-12.076560,118.459136" />
<g transform="translate(160.222246 11.039333) rotate(347.851277) scale(127.933410 37.528274)"><ellipse fill="#000012" fill-opacity="0.501961" cx="0" cy="0" rx="1" ry="1" /></g>
<g transform="translate(155.743140 0.000000) rotate(357.736922) scale(109.664417 45.441563)"><ellipse fill="#001018" fill-opacity="0.501961" cx="0" cy="0" rx="1" ry="1" /></g>
<g transform="translate(107.616928 0.000000) rotate(314.494516) scale(101.676562 17.678347)"><ellipse fill="#080b14" fill-opacity="0.501961" cx="0" cy="0" rx="1" ry="1" /></g>
<g transform="translate(110.765974 0.000000) rotate(326.281245) scale(91.091769 63.446215)"><ellipse fill="#1d1819" fill-opacity="0.501961" cx="0" cy="0" rx="1" ry="1" /></g>
<g transform="translate(115.241501 1.038900) rotate(321.495137) scale(84.422506 22.342240)"><ellipse fill="#090d13" fill-opacity="0.501961" cx="0" cy="0" rx="1" ry="1" /></g>
<path stroke="#ffe651" stroke-opacity="0.501961" fill="none" d="M 84.899603 107.593790 Q 66.153055 114.379599, 63.061851 75.437202" stroke-width="0.500000" />
<path stroke="#ffe34e" stroke-opacity="0.501961" fill="none" d="M 71.581228 126.589834 Q 68.981529 99.886879, 70.554784 74.569399" stroke-width="0.500000" />
<path stroke="#ffeb59" stroke-opacity="0.501961" fill="none" d="M 73.051305 110.200391 Q 62.749337 85.141638, 70.554784 74.569399" stroke-width="0.500000" />
<path stroke="#ffd54b" stroke-opacity="0.501961" fill="none" d="M 85.565213 118.461996 Q 61.684671 84.690086, 61.121255 80.134650" stroke-width="0.500000" />
<path stroke="#fac944" stroke-opacity="0.501961" fill="none" d="M 84.294700 121.341793 Q 60.795649 81.068880, 52.769568 74.897918" stroke-width="0.500000" />
<path stroke="#ffc944" stroke-opacity="0.501961" fill="none" d="M 70.146322 125.831152 Q 76.845940 83.164323, 52.769568 74.897918" stroke-width="0.500000" />
<polygon fill="#070001" fill-opacity="0.501961" points="29.619056,87.413436,45.884026,116.443377,62.371915,109.590069,64.553084,90.519050" />
<polygon fill="#0a0000" fill-opacity="0.501961" points="43.743789,108.015756,40.630435,115.301194,62.371915,109.590069,57.703580,88.329879" />
<polygon fill="#a16c2a" fill-opacity="0.501961" points="37.863940,109.714401,53.017350,73.203950,62.632366,71.661474,77.292767,74.579844" />
<polygon fill="#e7bd44" fill-opacity="0.501961" points="77.070711,67.477878,76.235724,76.268147,61.740638,93.961205,81.542483,129.669022" />
<polygon fill="#ac762f" fill-opacity="0.501961" points="101.945573,76.620554,49.656881,74.457864,50.752197,76.052255,82.120046,98.094606" />
<polygon fill="#eaa42b" fill-opacity="0.501961" points="67.498372,90.875436,61.242772,128.644023,105.562479,122.311231,63.006112,86.405458" />
<polygon fill="#ffc51b" fill-opacity="0.501961" points="13.267282,124.317063,124.418029,117.362686,71.310618,117.080604,37.972911,113.487800" />
<polygon fill="#e5741a" fill-opacity="0.501961" points="160.551920,110.091787,113.565888,107.227653,13.285388,159.000000,110.972996,122.814277" />
<polygon fill="#8a371b" fill-opacity="0.501961" points="104.114320,137.267937,159.761158,110.517280,11.442589,159.000000,98.920672,154.160510" />
<polygon fill="#7c401d" fill-opacity="0.501961" points="107.900687,134.646901,179.844858,105.768218,18.758193,159.000000,103.527288,142.729031" />
<polygon fill="#e27720" fill-opacity="0.501961" points="11.532382,120.840735,-16.000000,66.989749,11.241252,89.831116,-4.174518,116.133313" />
<polygon fill="#af621f" fill-opacity="0.501961" points="11.241252,89.831116,-16.000000,65.530456,11.532382,120.840735,-4.264268,97.976087" />
<polygon fill="#f3871d" fill-opacity="0.501961" points="65.651255,115.179433,-14.315730,113.611087,26.004865,124.233394,16.063408,118.768472" />
<polygon fill="#272127" fill-opacity="0.501961" points="26.004865,124.233394,20.167862,112.023253,33.072524,11.076931,1.354657,102.948831" />
<polygon fill="#3e2728" fill-opacity="0.501961" points="7.919121,112.095866,43.012861,87.587926,57.802316,-16.000000,0.539430,113.995498" />
<polygon fill="#1b1922" fill-opacity="0.501961" points="7.919121,112.095866,8.243840,70.707583,45.041571,49.379160,0.539430,113.995498" />
<polygon fill="#1e1d18" fill-opacity="0.501961" points="7.071657,110.115081,33.550226,81.858048,-1.174987,61.496351,10.373879,105.476613" />
<polygon fill="#243636" fill-opacity="0.501961" points="20.476163,93.763515,48.041186,83.760139,51.219918,63.145294,10.363813,102.649258" />
<polygon fill="#663d1f" fill-opacity="0.501961" points="68.102759,92.785877,14.410253,107.081377,3.476991,78.989575,6.908193,105.915606" />
<polygon fill="#56311b" fill-opacity="0.501961" points="57.121700,99.129404,-16.000000,114.557906,22.320553,89.678789,10.565075,101.922535" />
<polygon fill="#9f541e" fill-opacity="0.501961" points="111.426389,49.098321,121.221658,61.773981,99.664694,56.066558,97.663157,41.534985" />
<polygon fill="#693d1d" fill-opacity="0.501961" points="114.462686,63.881840,93.301931,53.518600,99.105074,38.339524,118.497157,63.106255" />
<polygon fill="#152521" fill-opacity="0.501961" points="95.258374,40.649536,78.203042,9.237958,77.998163,71.372212,97.665579,74.395408" />
<polygon fill="#060005" fill-opacity="0.501961" points="75.962640,40.092551,73.014080,8.509138,41.953495,73.884656,45.204512,80.973657" />
<polygon fill="#171512" fill-opacity="0.501961" points="34.516174,94.328297,67.815682,52.639388,41.953495,73.884656,78.774417,0.769862" />
<g transform="translate(208.163353 125.541109) rotate(154.061272) scale(121.498016 32.153439)"><ellipse fill="#2c201e" fill-opacity="0.501961" cx="0" cy="0" rx="1" ry="1" /></g>
<g transform="translate(195.816824 142.403362) rotate(168.213395) scale(121.498016 32.153439)"><ellipse fill="#38271e" fill-opacity="0.501961" cx="0" cy="0" rx="1" ry="1" /></g>
<g transform="translate(211.153785 73.488856) rotate(144.610855) scale(88.914314 7.591792)"><ellipse fill="#69371d" fill-opacity="0.501961" cx="0" cy="0" rx="1" ry="1" /></g>
<g transform="translate(212.954305 118.219276) rotate(110.180864) scale(77.667624 17.137024)"><ellipse fill="#33251e" fill-opacity="0.501961" cx="0" cy="0" rx="1" ry="1" /></g>
<g transform="translate(243.341980 107.996044) rotate(117.242487) scale(29.461981 8.421644)"><ellipse fill="#4c2e1d" fill-opacity="0.501961" cx="0" cy="0" rx="1" ry="1" /></g>
<g transform="translate(249.907254 143.000000) rotate(148.079358) scale(36.462258 9.501404)"><ellipse fill="#2c221d" fill-opacity="0.501961" cx="0" cy="0" rx="1" ry="1" /></g>
<g transform="translate(201.196443 83.299462) rotate(132.538041) scale(28.417013 6.150228)"><ellipse fill="#8a471d" fill-opacity="0.501961" cx="0" cy="0" rx="1" ry="1" /></g>
<g transform="translate(165.953878 63.827658) rotate(28.641190) scale(42.819702 16.266933)"><ellipse fill="#34271f" fill-opacity="0.501961" cx="0" cy="0" rx="1" ry="1" /></g>
<g transform="translate(154.655695 56.040564) rotate(17.162911) scale(13.664483 6.919244)"><ellipse fill="#82421b" fill-opacity="0.501961" cx="0" cy="0" rx="1" ry="1" /></g>
<g transform="translate(187.109356 22.234771) rotate(-83.614628) scale(25.468252 10.064529)"><ellipse fill="#0c1318" fill-opacity="0.501961" cx="0" cy="0" rx="1" ry="1" /></g>
<polygon fill="#392e21" fill-opacity="0.501961" points="68.174715,105.113659,139.161422,107.171843,91.861631,61.750257,169.259655,63.272480" />
</g>
</svg>